<?xml version="1.0" standalone="no"?>
<!DOCTYPE svg PUBLIC "-//W3C//DTD SVG 20010904//EN"
 "http://www.w3.org/TR/2001/REC-SVG-20010904/DTD/svg10.dtd">
<svg version="1.0" xmlns="http://www.w3.org/2000/svg"
 width="512.000000pt" height="512.000000pt" viewBox="0 0 512.000000 512.000000"
 preserveAspectRatio="xMidYMid meet">
<metadata>
Created by potrace 1.11, written by Peter Selinger 2001-2013
</metadata>
<g transform="translate(0.000000,512.000000) scale(0.100000,-0.100000)"
fill="#000000" stroke="none">
<path d="M2438 4795 c-2 -2 -21 -5 -43 -9 -22 -3 -51 -8 -65 -12 -14 -3 -37
-8 -53 -11 -15 -3 -30 -9 -33 -14 -3 -5 -12 -9 -20 -9 -9 0 -48 -16 -87 -36
-225 -113 -394 -304 -472 -535 -36 -104 -48 -179 -51 -319 -1 -69 -3 -135 -3
-147 -1 -23 -3 -23 -133 -23 l-133 0 -251 253 c-137 138 -258 258 -267 265
-14 12 -27 3 -108 -77 -80 -81 -89 -94 -77 -108 7 -9 114 -119 238 -244 294
-296 263 -259 245 -302 -28 -68 -81 -259 -101 -367 -3 -14 -7 -32 -9 -40 -2
-8 -7 -42 -11 -75 -3 -33 -8 -63 -10 -66 -9 -15 -18 -209 -18 -361 1 -115 -3
-168 -10 -169 -6 0 -154 -1 -328 -1 l-318 -1 0 -134 0 -133 28 0 c15 -1 170
-1 345 -1 238 0 319 -3 322 -12 2 -7 13 -55 25 -107 51 -227 144 -467 253
-653 l39 -67 -311 -312 c-171 -171 -311 -314 -311 -317 0 -9 175 -181 184
-181 4 0 141 133 304 296 l295 295 58 -64 c69 -77 199 -186 294 -249 142 -93
306 -160 475 -194 117 -24 346 -24 455 0 288 62 534 201 749 423 l66 68 307
-305 308 -306 93 94 93 94 -318 320 c-175 176 -317 324 -315 329 1 6 13 27 27
49 75 119 174 343 223 505 22 72 68 258 71 287 1 4 154 7 341 7 186 -1 343 1
347 4 5 3 8 63 8 134 l-1 128 -314 2 c-173 1 -322 2 -330 2 -13 1 -15 30 -15
198 0 109 -3 227 -7 263 -10 96 -26 204 -39 258 -6 26 -13 58 -15 72 -3 14 -7
32 -10 40 -3 8 -8 26 -11 40 -4 22 -66 215 -79 246 -3 6 109 125 247 263 l252
253 -93 93 c-76 76 -97 92 -108 83 -8 -7 -128 -126 -266 -265 l-253 -253 -125
0 -125 0 -6 168 c-3 92 -7 174 -10 182 -2 8 -7 32 -12 54 -13 66 -54 168 -96
242 -137 240 -374 408 -644 458 -65 12 -267 20 -277 11z m274 -285 c178 -49
314 -151 406 -304 35 -56 76 -167 86 -227 4 -29 9 -230 7 -281 -1 -17 -40 -18
-666 -18 l-666 0 2 123 c2 197 24 286 100 413 92 150 264 270 444 307 57 12
226 4 287 -13z m1026 -1197 c49 -153 83 -308 100 -448 15 -132 7 -551 -13
-645 -3 -14 -8 -41 -11 -60 -21 -137 -96 -376 -163 -524 -144 -316 -395 -593
-656 -724 -85 -43 -211 -86 -285 -98 -52 -9 -270 -10 -315 -2 -338 62 -627
277 -845 628 -88 142 -188 371 -226 518 -24 94 -55 259 -67 357 -14 114 -15
456 -2 545 16 116 30 186 51 275 22 90 70 248 81 268 2 4 525 7 1162 7 l1157
0 32 -97z"/>
<path d="M1850 2935 l-95 -95 284 -284 285 -285 -282 -282 c-155 -155 -282
-283 -282 -285 0 -7 180 -184 186 -184 4 0 137 131 296 290 159 160 292 290
294 290 3 0 137 -133 298 -295 161 -162 297 -295 301 -295 5 0 49 41 98 90 66
67 87 93 79 103 -6 6 -133 135 -283 286 l-271 274 283 283 284 284 -90 90
c-49 49 -94 90 -100 90 -5 0 -141 -131 -300 -290 l-291 -291 -299 301 -300
300 -95 -95z"/>
</g>
</svg>
